# xmcd CD database file
#
# Track frame offsets:
#	200
#	22877
#	40702
#	63415
#	72647
#	94015
#	102860
#	122147
#	143435
#	161097
#	180380
#	211217
#	252135
#
# Disc length: 3659 seconds
#
# Revision: 0
# Processed by: cddbd v1.4PL0 Copyright (c) Steve Scherf et al.
# Submitted via: Feurio! 1.65 - http://www.feurio.com
#
DISCID=a90e490d
DTITLE=Billy Hector - And The Crowd Went Wild !!!
DYEAR=1993
DGENRE=Bluesrock
TTITLE0=I Can Tell
TTITLE1=Stray Cat
TTITLE2=Hollis Brown
TTITLE3=On My Own
TTITLE4=Walkin Blues
TTITLE5=Linda
TTITLE6=Lonesome Train
TTITLE7=Murder
TTITLE8=I Ain't Cryin'
TTITLE9=Alberta
TTITLE10=Someday Baby
TTITLE11=Butt Naked
TTITLE12=Skirt
EXTD=
EXTT0=
EXTT1=
EXTT2=
EXTT3=
EXTT4=
EXTT5=
EXTT6=
EXTT7=
EXTT8=
EXTT9=
EXTT10=
EXTT11=
EXTT12=
PLAYORDER=
